<svg width="25" height="26" viewBox="0 0 25 26" fill="none" xmlns="http://www.w3.org/2000/svg">
<path d="M9.94141 11.8365C10.1842 11.6607 10.3013 11.3705 10.3013 10.9715C10.3097 10.7818 10.2706 10.5949 10.1869 10.4247C10.1116 10.2879 10 10.1735 9.86328 10.0926C9.72152 10.0067 9.56408 9.94976 9.40011 9.92522C9.22154 9.89174 9.04018 9.875 8.86161 9.87779H6.90011V12.1016H9.02344C9.38895 12.1044 9.69866 12.0151 9.94141 11.8365ZM10.2706 13.8454C9.99721 13.6362 9.6317 13.5329 9.1769 13.5329H6.89453V16.1557H9.13225C9.34152 16.1557 9.53404 16.1362 9.72098 16.0971C9.89786 16.0625 10.0665 15.9943 10.2176 15.8962C10.3599 15.8041 10.4743 15.6786 10.5608 15.5167C10.6445 15.3549 10.6864 15.1484 10.6864 14.9001C10.6864 14.4062 10.5469 14.0575 10.2706 13.8454ZM12.5 0.5C5.5971 0.5 0 6.0971 0 13C0 19.9029 5.5971 25.5 12.5 25.5C19.4029 25.5 25 19.9029 25 13C25 6.0971 19.4029 0.5 12.5 0.5ZM14.9135 8.50502H18.7751V9.44531H14.9135V8.50502ZM12.5 16.2589C12.3194 16.6018 12.0615 16.8979 11.7467 17.1239C11.4174 17.3527 11.0519 17.5201 10.6641 17.6177C10.2583 17.7265 9.83971 17.78 9.41964 17.7768H4.79911V8.25949H9.29129C9.74609 8.25949 10.159 8.30134 10.5357 8.37946C10.9096 8.45759 11.2277 8.59152 11.4955 8.77288C11.7606 8.95424 11.9699 9.19699 12.1177 9.49833C12.2628 9.79688 12.3382 10.1708 12.3382 10.6144C12.3382 11.0943 12.2294 11.4905 12.0117 11.8114C11.7913 12.1323 11.4732 12.3917 11.0407 12.5954C11.6295 12.7628 12.0619 13.0614 12.3465 13.4799C12.6367 13.904 12.779 14.4118 12.779 15.0089C12.779 15.4944 12.6869 15.9102 12.5 16.2589ZM20.279 14.7857H15.3013C15.3013 15.327 15.4883 15.846 15.7701 16.125C16.0547 16.4012 16.4621 16.5407 16.995 16.5407C17.38 16.5407 17.7065 16.4431 17.9855 16.2506C18.2617 16.058 18.4291 15.8544 18.4905 15.6423H20.159C19.8912 16.471 19.4838 17.0625 18.9314 17.4196C18.3845 17.7768 17.7148 17.9554 16.9364 17.9554C16.3923 17.9554 15.904 17.8661 15.466 17.6959C15.0446 17.5312 14.6652 17.2801 14.3527 16.9565C14.0446 16.6241 13.8064 16.2332 13.6523 15.8069C13.4821 15.3354 13.3984 14.8387 13.404 14.3393C13.404 13.8231 13.4905 13.3432 13.6579 12.8968C13.9788 12.029 14.6456 11.3343 15.4967 10.9743C15.9515 10.7846 16.4397 10.6897 16.9336 10.6953C17.5195 10.6953 18.0273 10.8069 18.4682 11.0357C18.8926 11.2542 19.2611 11.5673 19.5452 11.9509C19.827 12.3331 20.0251 12.7684 20.1507 13.2595C20.2706 13.7422 20.3125 14.25 20.279 14.7857ZM16.875 12.1183C16.5737 12.1183 16.3198 12.1713 16.1244 12.2746C15.9291 12.3778 15.7673 12.5061 15.6445 12.654C15.5276 12.7968 15.4412 12.962 15.3906 13.1395C15.346 13.2874 15.3153 13.4381 15.3041 13.5915H18.3873C18.3426 13.1088 18.1752 12.7517 17.952 12.5006C17.7176 12.2522 17.341 12.1183 16.875 12.1183Z" fill="white"/>
</svg>
