<svg width="25" height="25" viewBox="0 0 25 25" fill="none" xmlns="http://www.w3.org/2000/svg">
<path d="M9.94141 11.3365C10.1842 11.1607 10.3013 10.8705 10.3013 10.4715C10.3097 10.2818 10.2706 10.0949 10.1869 9.92467C10.1116 9.78795 10 9.67355 9.86328 9.59263C9.72152 9.50667 9.56408 9.44976 9.40011 9.42522C9.22154 9.39174 9.04018 9.375 8.86161 9.37779H6.90011V11.6016H9.02344C9.38895 11.6044 9.69866 11.5151 9.94141 11.3365ZM10.2706 13.3454C9.99721 13.1362 9.6317 13.0329 9.1769 13.0329H6.89453V15.6557H9.13225C9.34152 15.6557 9.53404 15.6362 9.72098 15.5971C9.89786 15.5625 10.0665 15.4943 10.2176 15.3962C10.3599 15.3041 10.4743 15.1786 10.5608 15.0167C10.6445 14.8549 10.6864 14.6484 10.6864 14.4001C10.6864 13.9062 10.5469 13.5575 10.2706 13.3454ZM12.5 0C5.5971 0 0 5.5971 0 12.5C0 19.4029 5.5971 25 12.5 25C19.4029 25 25 19.4029 25 12.5C25 5.5971 19.4029 0 12.5 0ZM14.9135 8.00502H18.7751V8.94531H14.9135V8.00502ZM12.5 15.7589C12.3194 16.1018 12.0615 16.3979 11.7467 16.6239C11.4174 16.8527 11.0519 17.0201 10.6641 17.1177C10.2583 17.2265 9.83971 17.28 9.41964 17.2768H4.79911V7.75949H9.29129C9.74609 7.75949 10.159 7.80134 10.5357 7.87946C10.9096 7.95759 11.2277 8.09152 11.4955 8.27288C11.7606 8.45424 11.9699 8.69699 12.1177 8.99833C12.2628 9.29688 12.3382 9.67076 12.3382 10.1144C12.3382 10.5943 12.2294 10.9905 12.0117 11.3114C11.7913 11.6323 11.4732 11.8917 11.0407 12.0954C11.6295 12.2628 12.0619 12.5614 12.3465 12.9799C12.6367 13.404 12.779 13.9118 12.779 14.5089C12.779 14.9944 12.6869 15.4102 12.5 15.7589ZM20.279 14.2857H15.3013C15.3013 14.827 15.4883 15.346 15.7701 15.625C16.0547 15.9012 16.4621 16.0407 16.995 16.0407C17.38 16.0407 17.7065 15.9431 17.9855 15.7506C18.2617 15.558 18.4291 15.3544 18.4905 15.1423H20.159C19.8912 15.971 19.4838 16.5625 18.9314 16.9196C18.3845 17.2768 17.7148 17.4554 16.9364 17.4554C16.3923 17.4554 15.904 17.3661 15.466 17.1959C15.0446 17.0312 14.6652 16.7801 14.3527 16.4565C14.0446 16.1241 13.8064 15.7332 13.6523 15.3069C13.4821 14.8354 13.3984 14.3387 13.404 13.8393C13.404 13.3231 13.4905 12.8432 13.6579 12.3968C13.9788 11.529 14.6456 10.8343 15.4967 10.4743C15.9515 10.2846 16.4397 10.1897 16.9336 10.1953C17.5195 10.1953 18.0273 10.3069 18.4682 10.5357C18.8926 10.7542 19.2611 11.0673 19.5452 11.4509C19.827 11.8331 20.0251 12.2684 20.1507 12.7595C20.2706 13.2422 20.3125 13.75 20.279 14.2857ZM16.875 11.6183C16.5737 11.6183 16.3198 11.6713 16.1244 11.7746C15.9291 11.8778 15.7673 12.0061 15.6445 12.154C15.5276 12.2968 15.4412 12.462 15.3906 12.6395C15.346 12.7874 15.3153 12.9381 15.3041 13.0915H18.3873C18.3426 12.6088 18.1752 12.2517 17.952 12.0006C17.7176 11.7522 17.341 11.6183 16.875 11.6183Z" fill="white"/>
</svg>
