<svg width="16" height="16" viewBox="0 0 16 16" fill="none" xmlns="http://www.w3.org/2000/svg">
<path d="M6.12015 3C6.22226 3 6.32018 3.04056 6.39239 3.11276C6.46459 3.18497 6.50515 3.28289 6.50515 3.385V4.10495H10.6395V3.38995C10.6395 3.28784 10.6801 3.18992 10.7523 3.11771C10.8245 3.04551 10.9224 3.00495 11.0245 3.00495C11.1266 3.00495 11.2245 3.04551 11.2967 3.11771C11.3689 3.18992 11.4095 3.28784 11.4095 3.38995V4.10495H12.9C13.1916 4.10495 13.4713 4.22077 13.6776 4.42694C13.8839 4.63311 13.9999 4.91276 14 5.2044V12.9005C13.9999 13.1922 13.8839 13.4718 13.6776 13.678C13.4713 13.8842 13.1916 14 12.9 14H4.1C3.80836 14 3.52865 13.8842 3.32238 13.678C3.1161 13.4718 3.00015 13.1922 3 12.9005V5.2044C3.00015 4.91276 3.1161 4.63311 3.32238 4.42694C3.52865 4.22077 3.80836 4.10495 4.1 4.10495H5.73515V3.38445C5.7353 3.28244 5.77592 3.18465 5.84811 3.11257C5.92029 3.04049 6.01814 3 6.12015 3V3ZM3.77 7.2581V12.9005C3.77 12.9439 3.77854 12.9868 3.79512 13.0268C3.8117 13.0669 3.83601 13.1033 3.86665 13.1339C3.8973 13.1645 3.93368 13.1888 3.97371 13.2054C4.01375 13.222 4.05666 13.2305 4.1 13.2305H12.9C12.9433 13.2305 12.9862 13.222 13.0263 13.2054C13.0663 13.1888 13.1027 13.1645 13.1333 13.1339C13.164 13.1033 13.1883 13.0669 13.2049 13.0268C13.2215 12.9868 13.23 12.9439 13.23 12.9005V7.2658L3.77 7.2581ZM6.66685 11.0405V11.9567H5.75V11.0405H6.66685ZM8.95815 11.0405V11.9567H8.04185V11.0405H8.95815ZM11.25 11.0405V11.9567H10.3332V11.0405H11.25ZM6.66685 8.8531V9.7694H5.75V8.8531H6.66685ZM8.95815 8.8531V9.7694H8.04185V8.8531H8.95815ZM11.25 8.8531V9.7694H10.3332V8.8531H11.25ZM5.73515 4.8744H4.1C4.05666 4.8744 4.01375 4.88294 3.97371 4.89952C3.93368 4.9161 3.8973 4.94041 3.86665 4.97105C3.83601 5.0017 3.8117 5.03808 3.79512 5.07811C3.77854 5.11815 3.77 5.16106 3.77 5.2044V6.48865L13.23 6.49635V5.2044C13.23 5.16106 13.2215 5.11815 13.2049 5.07811C13.1883 5.03808 13.164 5.0017 13.1333 4.97105C13.1027 4.94041 13.0663 4.9161 13.0263 4.89952C12.9862 4.88294 12.9433 4.8744 12.9 4.8744H11.4095V5.38535C11.4095 5.48746 11.3689 5.58538 11.2967 5.65759C11.2245 5.72979 11.1266 5.77035 11.0245 5.77035C10.9224 5.77035 10.8245 5.72979 10.7523 5.65759C10.6801 5.58538 10.6395 5.48746 10.6395 5.38535V4.8744H6.50515V5.3804C6.50515 5.48251 6.46459 5.58043 6.39239 5.65264C6.32018 5.72484 6.22226 5.7654 6.12015 5.7654C6.01804 5.7654 5.92012 5.72484 5.84791 5.65264C5.77571 5.58043 5.73515 5.48251 5.73515 5.3804V4.8744Z" fill="#1B1A1E"/>
</svg>
