<svg width="30" height="30" viewBox="0 0 30 30" fill="none" xmlns="http://www.w3.org/2000/svg">
<path fill-rule="evenodd" clip-rule="evenodd" d="M15 27C18.1826 27 21.2348 25.7357 23.4853 23.4853C25.7357 21.2348 27 18.1826 27 15C27 11.8174 25.7357 8.76515 23.4853 6.51472C21.2348 4.26428 18.1826 3 15 3C11.8174 3 8.76515 4.26428 6.51472 6.51472C4.26428 8.76515 3 11.8174 3 15C3 18.1826 4.26428 21.2348 6.51472 23.4853C8.76515 25.7357 11.8174 27 15 27ZM9.29 16.28C9.09 16.64 9 17.03 9 17.45C9.00055 17.7932 9.06986 18.1329 9.20382 18.4489C9.33779 18.7649 9.5337 19.0509 9.78 19.29L10.79 20.25C11.32 20.75 11.96 21 12.71 21C13.46 21 14.09 20.75 14.61 20.25L15.81 19.1L16.56 18.39L17.07 17.89C17.3798 17.5939 17.6086 17.2234 17.7346 16.8137C17.8607 16.4041 17.8797 15.9691 17.79 15.55C17.7879 15.4889 17.7778 15.4284 17.76 15.37C17.7003 15.196 17.6233 15.0285 17.53 14.87V14.85L17.45 14.71L17.43 14.68L17.41 14.67C17.3931 14.6326 17.3693 14.5987 17.34 14.57C17.34 14.55 17.33 14.54 17.31 14.52C17.3011 14.509 17.291 14.4989 17.28 14.49L17.25 14.45V14.44L17.23 14.41L17.19 14.38C17.1421 14.3415 17.0985 14.2979 17.06 14.25L16.63 13.83L16.57 13.89L15.67 14.73L15.62 14.82C15.6033 14.851 15.5931 14.885 15.59 14.92L15.96 15.3C16 15.33 16.04 15.37 16.06 15.41L16.07 15.42L16.08 15.45L16.1 15.46L16.14 15.56L16.17 15.6L16.23 15.7V15.72L16.24 15.74C16.27 15.84 16.29 15.94 16.29 16.07C16.2925 16.2409 16.2512 16.4096 16.17 16.56C16.1 16.69 16.02 16.78 15.95 16.85L15.07 17.7L14.46 18.27L13.51 19.19C13.29 19.39 13.01 19.49 12.69 19.49C12.38 19.49 12.11 19.39 11.89 19.19L10.91 18.23C10.7795 18.1145 10.6769 17.9709 10.61 17.81C10.582 17.6955 10.5685 17.5779 10.57 17.46C10.57 17.36 10.58 17.26 10.61 17.16C10.6599 16.9708 10.7642 16.8005 10.91 16.67L12.41 15.21V14.97C12.41 14.76 12.41 14.55 12.45 14.37C12.5875 13.7211 12.9065 13.1246 13.37 12.65C12.96 12.75 12.59 12.97 12.26 13.27L12.25 13.29L12.24 13.3L9.78 15.63C9.58 15.84 9.43 16.03 9.34 16.23H9.32C9.32 16.25 9.32 16.25 9.3 16.25V16.27L9.29 16.28ZM13.21 14.48C13.1293 14.7992 13.1362 15.1344 13.23 15.45C13.23 15.51 13.23 15.58 13.25 15.64C13.31 15.81 13.39 15.98 13.47 16.14V16.16L13.53 16.28L13.55 16.31L13.56 16.33L13.64 16.43C13.64 16.45 13.66 16.46 13.68 16.48L13.76 16.58H13.77C13.77 16.59 13.77 16.61 13.79 16.61L13.93 16.75L14.36 17.16L14.44 17.1L15.32 16.26L15.37 16.17L15.4 16.07L15.04 15.7C14.9908 15.6662 14.9498 15.6217 14.92 15.57V15.55L14.9 15.53L14.85 15.44L14.81 15.4L14.77 15.3V15.28L14.75 15.26C14.6692 14.9885 14.6906 14.6968 14.81 14.44C14.9 14.3 14.97 14.2 15.04 14.14L15.94 13.29L16.54 12.71L17.47 11.79C17.7 11.59 17.97 11.49 18.29 11.49C18.5913 11.4835 18.884 11.5906 19.11 11.79L20.11 12.75C20.24 12.9 20.34 13.04 20.39 13.17C20.4415 13.387 20.4415 13.613 20.39 13.83C20.36 14 20.27 14.16 20.13 14.31L18.59 15.76L18.61 16.01C18.6102 16.4408 18.5255 16.8674 18.3608 17.2655C18.1961 17.6636 17.9545 18.0253 17.65 18.33C18.0637 18.2209 18.4424 18.0074 18.75 17.71L18.76 17.7L21.22 15.36C21.41 15.16 21.57 14.96 21.68 14.76L21.7 14.74V14.72H21.71C22.0127 14.1633 22.088 13.511 21.92 12.9C21.8015 12.4461 21.5591 12.0341 21.22 11.71L20.22 10.75C19.9665 10.5057 19.6673 10.3136 19.3396 10.185C19.0119 10.0563 18.662 9.99342 18.31 10C17.56 10 16.93 10.25 16.41 10.76L15.21 11.9L14.45 12.62L13.95 13.11C13.55 13.48 13.31 13.94 13.21 14.48Z" fill="#292929"/>
</svg>
