<svg width="12" height="12" viewBox="0 0 12 12" fill="none" xmlns="http://www.w3.org/2000/svg">
<path fill-rule="evenodd" clip-rule="evenodd" d="M2.73468 1.23468C2.76952 1.19976 2.8109 1.17205 2.85646 1.15315C2.90202 1.13424 2.95086 1.12451 3.00018 1.12451C3.04951 1.12451 3.09835 1.13424 3.14391 1.15315C3.18947 1.17205 3.23085 1.19976 3.26568 1.23468L7.76568 5.73468C7.8006 5.76952 7.82831 5.8109 7.84722 5.85646C7.86612 5.90202 7.87585 5.95086 7.87585 6.00018C7.87585 6.04951 7.86612 6.09835 7.84722 6.14391C7.82831 6.18947 7.8006 6.23085 7.76568 6.26568L3.26568 10.7657C3.19527 10.8361 3.09976 10.8757 3.00018 10.8757C2.9006 10.8757 2.8051 10.8361 2.73468 10.7657C2.66427 10.6953 2.62471 10.5998 2.62471 10.5002C2.62471 10.4006 2.66427 10.3051 2.73468 10.2347L6.96993 6.00018L2.73468 1.76568C2.69976 1.73085 2.67205 1.68947 2.65315 1.64391C2.63424 1.59835 2.62451 1.54951 2.62451 1.50018C2.62451 1.45086 2.63424 1.40202 2.65315 1.35646C2.67205 1.3109 2.69976 1.26952 2.73468 1.23468Z" fill="#2C69DF"/>
<path fill-rule="evenodd" clip-rule="evenodd" d="M5.73468 1.23468C5.76952 1.19976 5.8109 1.17205 5.85646 1.15315C5.90202 1.13424 5.95086 1.12451 6.00018 1.12451C6.04951 1.12451 6.09835 1.13424 6.14391 1.15315C6.18947 1.17205 6.23085 1.19976 6.26568 1.23468L10.7657 5.73468C10.8006 5.76952 10.8283 5.8109 10.8472 5.85646C10.8661 5.90202 10.8759 5.95086 10.8759 6.00018C10.8759 6.04951 10.8661 6.09835 10.8472 6.14391C10.8283 6.18947 10.8006 6.23085 10.7657 6.26568L6.26568 10.7657C6.19527 10.8361 6.09976 10.8757 6.00018 10.8757C5.9006 10.8757 5.8051 10.8361 5.73468 10.7657C5.66427 10.6953 5.62471 10.5998 5.62471 10.5002C5.62471 10.4006 5.66427 10.3051 5.73468 10.2347L9.96993 6.00018L5.73468 1.76568C5.69976 1.73085 5.67205 1.68947 5.65315 1.64391C5.63424 1.59835 5.62451 1.54951 5.62451 1.50018C5.62451 1.45086 5.63424 1.40202 5.65315 1.35646C5.67205 1.3109 5.69976 1.26952 5.73468 1.23468Z" fill="#2C69DF"/>
</svg>
