<svg width="25" height="26" viewBox="0 0 25 26" fill="none" xmlns="http://www.w3.org/2000/svg">
<path d="M17.0508 7.87444C16.2246 7.13936 15.2325 6.6155 14.1596 6.34775C13.0866 6.07999 11.9648 6.07632 10.8901 6.33705C11.0798 6.59096 12.327 8.28739 13.4515 10.3549C15.8929 9.43973 16.9252 8.05022 17.0508 7.87444ZM13.6719 14.1384C9.8019 15.486 8.4096 18.173 8.28683 18.4241C9.45033 19.3309 10.9124 19.8722 12.5 19.8722C13.4515 19.8722 14.3583 19.6797 15.1814 19.3281C15.0781 18.7254 14.6819 16.6272 13.7165 14.1217L13.6719 14.1384ZM15.0028 13.8064C15.9012 16.2729 16.2667 18.2818 16.3365 18.7003C17.8767 17.6596 18.9732 16.0106 19.2773 14.0993C19.043 14.0268 17.154 13.4632 15.0028 13.8064ZM12.5 0.5C5.5971 0.5 0 6.0971 0 13C0 19.9029 5.5971 25.5 12.5 25.5C19.4029 25.5 25 19.9029 25 13C25 6.0971 19.4029 0.5 12.5 0.5ZM12.5 21.0357C8.0692 21.0357 4.46429 17.4308 4.46429 13C4.46429 8.5692 8.0692 4.96429 12.5 4.96429C16.9308 4.96429 20.5357 8.5692 20.5357 13C20.5357 17.4308 16.9308 21.0357 12.5 21.0357ZM13.9816 11.3761C14.1406 11.7026 14.2941 12.0346 14.4364 12.3694C14.4866 12.4866 14.5368 12.6038 14.5843 12.7238C16.8666 12.4364 19.1378 12.8968 19.3638 12.9442C19.3499 11.3231 18.7695 9.83594 17.8153 8.66685C17.6674 8.86496 16.5179 10.341 13.9816 11.3761ZM12.1261 10.7679C10.9877 8.74498 9.76283 7.04576 9.58147 6.79743C7.66183 7.70424 6.22489 9.47321 5.78125 11.6021C6.08817 11.6077 8.91741 11.6217 12.1261 10.7679ZM12.9799 13.0698C13.0692 13.0419 13.1585 13.014 13.2506 12.9888C13.0776 12.5982 12.8906 12.2076 12.6953 11.8253C9.26897 12.8521 5.94029 12.8075 5.64174 12.8019C5.63895 12.8717 5.63895 12.9414 5.63895 13.0112C5.63895 14.7746 6.3058 16.3845 7.40234 17.601C7.5558 17.3331 9.43917 14.2137 12.9799 13.0698Z" fill="white"/>
</svg>
