<svg width="25" height="25" viewBox="0 0 25 25" fill="none" xmlns="http://www.w3.org/2000/svg">
<path d="M17.0508 7.37444C16.2246 6.63936 15.2325 6.1155 14.1596 5.84775C13.0866 5.57999 11.9648 5.57632 10.8901 5.83705C11.0798 6.09096 12.327 7.78739 13.4515 9.85491C15.8929 8.93973 16.9252 7.55022 17.0508 7.37444ZM13.6719 13.6384C9.8019 14.986 8.4096 17.673 8.28683 17.9241C9.45033 18.8309 10.9124 19.3722 12.5 19.3722C13.4515 19.3722 14.3583 19.1797 15.1814 18.8281C15.0781 18.2254 14.6819 16.1272 13.7165 13.6217L13.6719 13.6384ZM15.0028 13.3064C15.9012 15.7729 16.2667 17.7818 16.3365 18.2003C17.8767 17.1596 18.9732 15.5106 19.2773 13.5993C19.043 13.5268 17.154 12.9632 15.0028 13.3064ZM12.5 0C5.5971 0 0 5.5971 0 12.5C0 19.4029 5.5971 25 12.5 25C19.4029 25 25 19.4029 25 12.5C25 5.5971 19.4029 0 12.5 0ZM12.5 20.5357C8.0692 20.5357 4.46429 16.9308 4.46429 12.5C4.46429 8.0692 8.0692 4.46429 12.5 4.46429C16.9308 4.46429 20.5357 8.0692 20.5357 12.5C20.5357 16.9308 16.9308 20.5357 12.5 20.5357ZM13.9816 10.8761C14.1406 11.2026 14.2941 11.5346 14.4364 11.8694C14.4866 11.9866 14.5368 12.1038 14.5843 12.2238C16.8666 11.9364 19.1378 12.3968 19.3638 12.4442C19.3499 10.8231 18.7695 9.33594 17.8153 8.16685C17.6674 8.36496 16.5179 9.84096 13.9816 10.8761ZM12.1261 10.2679C10.9877 8.24498 9.76283 6.54576 9.58147 6.29743C7.66183 7.20424 6.22489 8.97321 5.78125 11.1021C6.08817 11.1077 8.91741 11.1217 12.1261 10.2679ZM12.9799 12.5698C13.0692 12.5419 13.1585 12.514 13.2506 12.4888C13.0776 12.0982 12.8906 11.7076 12.6953 11.3253C9.26897 12.3521 5.94029 12.3075 5.64174 12.3019C5.63895 12.3717 5.63895 12.4414 5.63895 12.5112C5.63895 14.2746 6.3058 15.8845 7.40234 17.101C7.5558 16.8331 9.43917 13.7137 12.9799 12.5698Z" fill="white"/>
</svg>
