<svg width="30" height="30" viewBox="0 0 30 30" fill="none" xmlns="http://www.w3.org/2000/svg">
<path fill-rule="evenodd" clip-rule="evenodd" d="M15 27C18.1826 27 21.2348 25.7357 23.4853 23.4853C25.7357 21.2348 27 18.1826 27 15C27 11.8174 25.7357 8.76515 23.4853 6.51472C21.2348 4.26428 18.1826 3 15 3C11.8174 3 8.76515 4.26428 6.51472 6.51472C4.26428 8.76515 3 11.8174 3 15C3 18.1826 4.26428 21.2348 6.51472 23.4853C8.76515 25.7357 11.8174 27 15 27ZM13.77 20.97V15.6H12V13.45H13.77V11.85C13.77 10 14.85 9 16.42 9C17.17 9 17.82 9.06 18 9.08V11.01H16.91C16.06 11.01 15.89 11.44 15.89 12.06V13.44H17.93L17.66 15.59H15.9V21L13.77 20.97Z" fill="#292929"/>
</svg>
