<svg width="25" height="26" viewBox="0 0 25 26" fill="none" xmlns="http://www.w3.org/2000/svg">
<path d="M12.5 0.5C5.62499 0.5 0 6.13504 0 13.0753C0 19.3504 4.57499 24.5587 10.55 25.5V16.7149H7.37499V13.0753H10.55V10.3017C10.55 7.15161 12.4125 5.41968 15.275 5.41968C16.6375 5.41968 18.0625 5.65813 18.0625 5.65813V8.75803H16.4875C14.9375 8.75803 14.45 9.7244 14.45 10.7159V13.0753H17.925L17.3625 16.7149H14.45V25.5C17.3955 25.0329 20.0777 23.524 22.0124 21.2456C23.947 18.9671 25.0067 16.0693 25 13.0753C25 6.13504 19.375 0.5 12.5 0.5Z" fill="white"/>
</svg>
