<svg width="72" height="72" viewBox="0 0 72 72" fill="none" xmlns="http://www.w3.org/2000/svg">
<path d="M47.8125 9H24.1875C22.8448 9 21.5572 9.53337 20.6078 10.4828C19.6584 11.4322 19.125 12.7198 19.125 14.0625V57.9375C19.125 59.2802 19.6584 60.5678 20.6078 61.5172C21.5572 62.4666 22.8448 63 24.1875 63H47.8125C49.1552 63 50.4428 62.4666 51.3922 61.5172C52.3416 60.5678 52.875 59.2802 52.875 57.9375V14.0625C52.875 12.7198 52.3416 11.4322 51.3922 10.4828C50.4428 9.53337 49.1552 9 47.8125 9V9ZM36 59.625C35.5574 59.6247 35.1192 59.5372 34.7103 59.3676C34.3015 59.1979 33.9301 58.9494 33.6174 58.6362C32.9857 58.0037 32.6312 57.1462 32.6317 56.2523C32.632 55.8096 32.7195 55.3714 32.8892 54.9626C33.0588 54.5538 33.3073 54.1824 33.6205 53.8696C34.2531 53.2379 35.1106 52.8834 36.0045 52.884C36.8984 52.8846 37.7555 53.2403 38.3871 53.8728C39.0188 54.5053 39.3733 55.3628 39.3727 56.2568C39.3722 57.1507 39.0165 58.0077 38.384 58.6394C37.7514 59.2711 36.8939 59.6256 36 59.625H35.9977H36Z" fill="#FFD31B"/>
</svg>
