<svg width="72" height="72" viewBox="0 0 72 72" fill="none" xmlns="http://www.w3.org/2000/svg">
<path d="M34.5448 9V17.569H37.4554V9H34.5446H34.5448ZM22.6599 11.5751L20.2752 13.2448L25.1894 20.2623L27.5727 18.5927L22.6599 11.5751ZM49.3398 11.5751L44.4271 18.5927L46.8108 20.2624L51.7248 13.2448L49.3402 11.5751H49.3398ZM35.9995 19.9136C28.8793 19.9136 23.1073 24.2373 23.1073 29.5717L30.4321 51.7544H41.5682L48.8923 29.5717C48.8923 24.2374 43.1207 19.9136 36.0002 19.9136H35.9995ZM12.8459 22.4853L11.8514 25.2219L19.8997 28.152L20.8978 25.4167L12.8457 22.4853H12.8459ZM59.1538 22.4853L51.1016 25.4169L52.0964 28.1526L60.1485 25.222L59.1538 22.4853ZM20.509 34.9956L12.2335 37.2153L12.9844 40.0247L21.2599 37.8082L20.5091 34.9956H20.509ZM51.4907 34.9956L50.7403 37.8082L59.0158 40.0243L59.7662 37.2149L51.4907 34.9956V34.9956ZM30.2697 53.3714V57.2273H41.7306V53.372H30.2698L30.2697 53.3714ZM30.2697 59.1441V63H41.7306V59.1448H30.2698L30.2697 59.1441Z" fill="#FFD31B"/>
</svg>
