<svg width="22" height="16" viewBox="0 0 22 16" fill="none" xmlns="http://www.w3.org/2000/svg">
<path d="M0 13.5385C0 14.1913 0.257539 14.8174 0.715961 15.279C1.17438 15.7407 1.79614 16 2.44444 16H19.5556C20.2039 16 20.8256 15.7407 21.284 15.279C21.7425 14.8174 22 14.1913 22 13.5385V11.0769H0V13.5385Z" fill="#138808"/>
<path d="M0 4.92308H22V11.0769H0V4.92308Z" fill="#EEEEEE"/>
<path d="M22 4.92308V2.46154C22 1.8087 21.7425 1.1826 21.284 0.720968C20.8256 0.25934 20.2039 0 19.5556 0H2.44444C1.79614 0 1.17438 0.25934 0.715961 0.720968C0.257539 1.1826 0 1.8087 0 2.46154V4.92308H22Z" fill="#FF9933"/>
<path d="M11 10.4615C12.35 10.4615 13.4444 9.35947 13.4444 8C13.4444 6.64053 12.35 5.53846 11 5.53846C9.64997 5.53846 8.55556 6.64053 8.55556 8C8.55556 9.35947 9.64997 10.4615 11 10.4615Z" fill="#000080"/>
<path d="M11 9.84615C12.0125 9.84615 12.8333 9.0196 12.8333 8C12.8333 6.9804 12.0125 6.15385 11 6.15385C9.98748 6.15385 9.16667 6.9804 9.16667 8C9.16667 9.0196 9.98748 9.84615 11 9.84615Z" fill="#EEEEEE"/>
<path d="M11 6.15385L11.0892 7.54708L11.7009 6.29477L11.2548 7.616L12.2962 6.69415L11.3813 7.74338L12.6934 7.29354L11.4498 7.91015L12.8333 8L11.4498 8.08985L12.6934 8.70585L11.3813 8.25662L12.2962 9.30523L11.2548 8.384L11.7009 9.70523L11.0892 8.45292L11 9.84615L10.9108 8.45292L10.2984 9.70523L10.7452 8.384L9.70322 9.30523L10.6187 8.25662L9.30661 8.70585L10.5502 8.08985L9.16667 8L10.5502 7.91015L9.30661 7.29354L10.6187 7.74338L9.70322 6.69415L10.7452 7.616L10.2984 6.29477L10.9108 7.54708L11 6.15385Z" fill="#6666B3"/>
<path d="M11 8.61539C11.3375 8.61539 11.6111 8.33987 11.6111 8C11.6111 7.66013 11.3375 7.38462 11 7.38462C10.6625 7.38462 10.3889 7.66013 10.3889 8C10.3889 8.33987 10.6625 8.61539 11 8.61539Z" fill="#000080"/>
</svg>
