<svg width="25" height="26" viewBox="0 0 25 26" fill="none" xmlns="http://www.w3.org/2000/svg">
<rect y="0.5" width="25" height="25" rx="12.5" fill="white"/>
<path d="M12.0247 10.1834C10.7344 10.1834 9.6815 11.2364 9.6815 12.5266C9.6815 13.8168 10.7344 14.8697 12.0247 14.8697C13.3149 14.8697 14.3678 13.8168 14.3678 12.5266C14.3678 11.2364 13.3149 10.1834 12.0247 10.1834ZM19.0524 12.5266C19.0524 11.5563 19.0612 10.5948 19.0067 9.62621C18.9522 8.50122 18.6956 7.50278 17.8729 6.68013C17.0485 5.85572 16.0518 5.60084 14.9268 5.54635C13.9565 5.49186 12.995 5.50064 12.0264 5.50064C11.0561 5.50064 10.0946 5.49186 9.12603 5.54635C8.00102 5.60084 7.00258 5.85748 6.17993 6.68013C5.35551 7.50454 5.10063 8.50122 5.04613 9.62621C4.99164 10.5965 5.00043 11.558 5.00043 12.5266C5.00043 13.4951 4.99164 14.4584 5.04613 15.427C5.10063 16.552 5.35727 17.5504 6.17993 18.373C7.00434 19.1975 8.00102 19.4523 9.12603 19.5068C10.0963 19.5613 11.0579 19.5525 12.0264 19.5525C12.9967 19.5525 13.9583 19.5613 14.9268 19.5068C16.0518 19.4523 17.0503 19.1957 17.8729 18.373C18.6973 17.5486 18.9522 16.552 19.0067 15.427C19.063 14.4584 19.0524 13.4969 19.0524 12.5266V12.5266ZM12.0247 16.1318C10.0295 16.1318 8.41938 14.5217 8.41938 12.5266C8.41938 10.5315 10.0295 8.92133 12.0247 8.92133C14.0198 8.92133 15.6299 10.5315 15.6299 12.5266C15.6299 14.5217 14.0198 16.1318 12.0247 16.1318ZM15.7776 9.61566C15.3118 9.61566 14.9356 9.23949 14.9356 8.77368C14.9356 8.30786 15.3118 7.93169 15.7776 7.93169C16.2434 7.93169 16.6196 8.30786 16.6196 8.77368C16.6197 8.88429 16.5981 8.99384 16.5558 9.09605C16.5135 9.19827 16.4515 9.29115 16.3733 9.36936C16.2951 9.44757 16.2022 9.50959 16.1 9.55185C15.9978 9.59412 15.8882 9.6158 15.7776 9.61566V9.61566Z" fill="#1B1A1E"/>
</svg>
