<svg width="25" height="25" viewBox="0 0 25 25" fill="none" xmlns="http://www.w3.org/2000/svg">
<rect width="25" height="25" rx="12.5" fill="white"/>
<path d="M12.0248 9.68331C10.7345 9.68331 9.68159 10.7362 9.68159 12.0265C9.68159 13.3167 10.7345 14.3696 12.0248 14.3696C13.315 14.3696 14.3679 13.3167 14.3679 12.0265C14.3679 10.7362 13.315 9.68331 12.0248 9.68331ZM19.0525 12.0265C19.0525 11.0562 19.0613 10.0946 19.0068 9.12609C18.9523 8.00109 18.6957 7.00266 17.873 6.18001C17.0486 5.3556 16.0519 5.10072 14.9269 5.04623C13.9566 4.99173 12.9951 5.00052 12.0265 5.00052C11.0562 5.00052 10.0947 4.99173 9.12612 5.04623C8.00112 5.10072 7.00268 5.35736 6.18002 6.18001C5.3556 7.00442 5.10072 8.00109 5.04623 9.12609C4.99173 10.0964 5.00052 11.0579 5.00052 12.0265C5.00052 12.995 4.99173 13.9583 5.04623 14.9268C5.10072 16.0518 5.35736 17.0503 6.18002 17.8729C7.00443 18.6973 8.00112 18.9522 9.12612 19.0067C10.0964 19.0612 11.058 19.0524 12.0265 19.0524C12.9968 19.0524 13.9584 19.0612 14.9269 19.0067C16.0519 18.9522 17.0504 18.6956 17.873 17.8729C18.6974 17.0485 18.9523 16.0518 19.0068 14.9268C19.0631 13.9583 19.0525 12.9968 19.0525 12.0265V12.0265ZM12.0248 15.6317C10.0296 15.6317 8.41948 14.0216 8.41948 12.0265C8.41948 10.0314 10.0296 8.42121 12.0248 8.42121C14.0199 8.42121 15.63 10.0314 15.63 12.0265C15.63 14.0216 14.0199 15.6317 12.0248 15.6317ZM15.7777 9.11554C15.3119 9.11554 14.9357 8.73937 14.9357 8.27355C14.9357 7.80774 15.3119 7.43157 15.7777 7.43157C16.2435 7.43157 16.6197 7.80774 16.6197 8.27355C16.6198 8.38416 16.5981 8.49372 16.5559 8.59593C16.5136 8.69815 16.4516 8.79103 16.3734 8.86924C16.2952 8.94745 16.2023 9.00947 16.1001 9.05173C15.9979 9.094 15.8883 9.11568 15.7777 9.11554V9.11554Z" fill="#2C69DF"/>
</svg>
