<svg width="25" height="26" viewBox="0 0 25 26" fill="none" xmlns="http://www.w3.org/2000/svg">
<path d="M12.5 0.5C5.59635 0.5 0 6.09635 0 13C0 19.9036 5.59635 25.5 12.5 25.5C19.4036 25.5 25 19.9036 25 13C25 6.09635 19.4036 0.5 12.5 0.5ZM9.4401 18.181H6.90885V10.0352H9.4401V18.181ZM8.15885 9.03516C7.35937 9.03516 6.84245 8.46875 6.84245 7.76823C6.84245 7.05338 7.375 6.50391 8.19141 6.50391C9.00781 6.50391 9.50781 7.05338 9.52344 7.76823C9.52344 8.46875 9.00781 9.03516 8.15885 9.03516ZM18.6849 18.181H16.1536V13.6667C16.1536 12.6159 15.7865 11.9023 14.8711 11.9023C14.1719 11.9023 13.7565 12.3854 13.5729 12.8503C13.5052 13.0156 13.4883 13.25 13.4883 13.4831V18.1797H10.9557V12.6328C10.9557 11.6159 10.9232 10.7656 10.8893 10.0339H13.0885L13.2044 11.1654H13.2552C13.5885 10.6341 14.4049 9.85026 15.7708 9.85026C17.4362 9.85026 18.6849 10.9661 18.6849 13.3646V18.181Z" fill="white"/>
</svg>
