<svg width="30" height="30" viewBox="0 0 30 30" fill="none" xmlns="http://www.w3.org/2000/svg">
<path fill-rule="evenodd" clip-rule="evenodd" d="M27 15C27 18.1826 25.7357 21.2348 23.4853 23.4853C21.2348 25.7357 18.1826 27 15 27C11.8174 27 8.76515 25.7357 6.51472 23.4853C4.26428 21.2348 3 18.1826 3 15C3 11.8174 4.26428 8.76515 6.51472 6.51472C8.76515 4.26428 11.8174 3 15 3C18.1826 3 21.2348 4.26428 23.4853 6.51472C25.7357 8.76515 27 11.8174 27 15ZM12.39 20V12.58H10.13V20H12.39ZM11.26 11.56C12.05 11.56 12.54 10.99 12.54 10.28C12.52 9.55 12.04 9 11.28 9C10.5 9 10 9.55 10 10.28C10 10.99 10.49 11.56 11.25 11.56H11.26ZM15.88 20H13.38C13.38 20 13.42 13.5 13.38 12.83H15.88V13.85L15.86 13.87H15.88V13.85C16.1154 13.4702 16.4482 13.1604 16.8439 12.9529C17.2396 12.7453 17.6837 12.6477 18.13 12.67C19.77 12.67 21 13.69 21 15.89V20H18.5V16.17C18.5 15.2 18.14 14.55 17.24 14.55C16.55 14.55 16.14 14.99 15.96 15.42C15.9 15.57 15.88 15.78 15.88 16V20Z" fill="#292929"/>
</svg>
