<svg width="25" height="26" viewBox="0 0 25 26" fill="none" xmlns="http://www.w3.org/2000/svg">
<path fill-rule="evenodd" clip-rule="evenodd" d="M5 13C5 13.55 5.2 14.02 5.59 14.41C5.98 14.81 6.45 15 7 15C7.55 15 8.02 14.8 8.41 14.41C8.81 14.02 9 13.55 9 13C9 12.45 8.8 11.98 8.41 11.59C8.22753 11.4008 8.00835 11.2509 7.76589 11.1495C7.52344 11.048 7.26281 10.9972 7 11C6.45 11 5.98 11.2 5.59 11.59C5.19 11.98 5 12.45 5 13ZM10.62 13C10.62 13.55 10.82 14.02 11.2 14.41C11.6 14.81 12.07 15 12.62 15C13.17 15 13.64 14.8 14.03 14.41C14.43 14.02 14.62 13.55 14.62 13C14.62 12.45 14.42 11.98 14.03 11.59C13.8475 11.4008 13.6284 11.2509 13.3859 11.1495C13.1434 11.048 12.8828 10.9972 12.62 11C12.07 11 11.59 11.2 11.2 11.59C10.81 11.98 10.62 12.45 10.62 13ZM16.22 13C16.22 13.55 16.42 14.02 16.8 14.41C17.2 14.81 17.67 15 18.23 15C18.79 15 19.26 14.8 19.65 14.41C20.04 14.02 20.23 13.55 20.23 13C20.23 12.45 20.03 11.98 19.65 11.59C19.4664 11.3996 19.2456 11.249 19.0013 11.1475C18.757 11.046 18.4945 10.9958 18.23 11C17.67 11 17.19 11.2 16.8 11.59C16.41 11.98 16.22 12.45 16.22 13Z" fill="#292929"/>
</svg>
