<svg width="129" height="149" viewBox="0 0 129 149" fill="none" xmlns="http://www.w3.org/2000/svg">
<circle cx="-2.85214" cy="62.8757" r="4.0418" transform="rotate(-45 -2.85214 62.8757)" fill="#E2E2E2"/>
<circle cx="8.57974" cy="51.4437" r="4.0418" transform="rotate(-45 8.57974 51.4437)" fill="#E2E2E2"/>
<circle cx="20.0119" cy="40.0118" r="4.0418" transform="rotate(-45 20.0119 40.0118)" fill="#E2E2E2"/>
<circle cx="31.4438" cy="28.5798" r="4.0418" transform="rotate(-45 31.4438 28.5798)" fill="#E2E2E2"/>
<circle cx="42.8756" cy="17.1479" r="4.0418" transform="rotate(-45 42.8756 17.1479)" fill="#E2E2E2"/>
<circle cx="54.3075" cy="5.71594" r="4.0418" transform="rotate(-45 54.3075 5.71594)" fill="#E2E2E2"/>
<circle cx="-2.85214" cy="85.7396" r="4.0418" transform="rotate(-45 -2.85214 85.7396)" fill="#E2E2E2"/>
<circle cx="8.57974" cy="74.3076" r="4.0418" transform="rotate(-45 8.57974 74.3076)" fill="#E2E2E2"/>
<circle cx="20.0116" cy="62.8757" r="4.0418" transform="rotate(-45 20.0116 62.8757)" fill="#E2E2E2"/>
<circle cx="31.4438" cy="51.4437" r="4.0418" transform="rotate(-45 31.4438 51.4437)" fill="#E2E2E2"/>
<circle cx="42.8756" cy="40.0118" r="4.0418" transform="rotate(-45 42.8756 40.0118)" fill="#E2E2E2"/>
<circle cx="54.3075" cy="28.5798" r="4.0418" transform="rotate(-45 54.3075 28.5798)" fill="#E2E2E2"/>
<circle cx="65.7394" cy="17.1479" r="4.0418" transform="rotate(-45 65.7394 17.1479)" fill="#E2E2E2"/>
<circle cx="8.57974" cy="97.1715" r="4.0418" transform="rotate(-45 8.57974 97.1715)" fill="#E2E2E2"/>
<circle cx="20.0116" cy="85.7396" r="4.0418" transform="rotate(-45 20.0116 85.7396)" fill="#E2E2E2"/>
<circle cx="31.4435" cy="74.3076" r="4.0418" transform="rotate(-45 31.4435 74.3076)" fill="#E2E2E2"/>
<circle cx="42.8756" cy="62.8757" r="4.0418" transform="rotate(-45 42.8756 62.8757)" fill="#E2E2E2"/>
<circle cx="54.3075" cy="51.4437" r="4.0418" transform="rotate(-45 54.3075 51.4437)" fill="#E2E2E2"/>
<circle cx="65.7394" cy="40.0118" r="4.0418" transform="rotate(-45 65.7394 40.0118)" fill="#E2E2E2"/>
<circle cx="77.1713" cy="28.5798" r="4.0418" transform="rotate(-45 77.1713 28.5798)" fill="#E2E2E2"/>
<circle cx="20.0119" cy="108.603" r="4.0418" transform="rotate(-45 20.0119 108.603)" fill="#E2E2E2"/>
<circle cx="31.4438" cy="97.1715" r="4.0418" transform="rotate(-45 31.4438 97.1715)" fill="#E2E2E2"/>
<circle cx="42.8756" cy="85.7396" r="4.0418" transform="rotate(-45 42.8756 85.7396)" fill="#E2E2E2"/>
<circle cx="54.3078" cy="74.3076" r="4.0418" transform="rotate(-45 54.3078 74.3076)" fill="#E2E2E2"/>
<circle cx="65.7397" cy="62.8757" r="4.0418" transform="rotate(-45 65.7397 62.8757)" fill="#E2E2E2"/>
<circle cx="77.1715" cy="51.4437" r="4.0418" transform="rotate(-45 77.1715 51.4437)" fill="#E2E2E2"/>
<circle cx="88.6034" cy="40.0118" r="4.0418" transform="rotate(-45 88.6034 40.0118)" fill="#E2E2E2"/>
<circle cx="31.4438" cy="120.035" r="4.0418" transform="rotate(-45 31.4438 120.035)" fill="#E2E2E2"/>
<circle cx="42.8756" cy="108.603" r="4.0418" transform="rotate(-45 42.8756 108.603)" fill="#E2E2E2"/>
<circle cx="54.3075" cy="97.1715" r="4.0418" transform="rotate(-45 54.3075 97.1715)" fill="#E2E2E2"/>
<circle cx="65.7397" cy="85.7396" r="4.0418" transform="rotate(-45 65.7397 85.7396)" fill="#E2E2E2"/>
<circle cx="77.1715" cy="74.3076" r="4.0418" transform="rotate(-45 77.1715 74.3076)" fill="#E2E2E2"/>
<circle cx="88.6034" cy="62.8757" r="4.0418" transform="rotate(-45 88.6034 62.8757)" fill="#E2E2E2"/>
<circle cx="100.035" cy="51.4437" r="4.0418" transform="rotate(-45 100.035 51.4437)" fill="#E2E2E2"/>
<circle cx="42.8756" cy="131.467" r="4.0418" transform="rotate(-45 42.8756 131.467)" fill="#E2E2E2"/>
<circle cx="54.3075" cy="120.035" r="4.0418" transform="rotate(-45 54.3075 120.035)" fill="#E2E2E2"/>
<circle cx="65.7394" cy="108.603" r="4.0418" transform="rotate(-45 65.7394 108.603)" fill="#E2E2E2"/>
<circle cx="77.1715" cy="97.1715" r="4.0418" transform="rotate(-45 77.1715 97.1715)" fill="#E2E2E2"/>
<circle cx="88.6034" cy="85.7396" r="4.0418" transform="rotate(-45 88.6034 85.7396)" fill="#E2E2E2"/>
<circle cx="100.035" cy="74.3076" r="4.0418" transform="rotate(-45 100.035 74.3076)" fill="#E2E2E2"/>
<circle cx="111.467" cy="62.8757" r="4.0418" transform="rotate(-45 111.467 62.8757)" fill="#E2E2E2"/>
<circle cx="54.3075" cy="142.899" r="4.0418" transform="rotate(-45 54.3075 142.899)" fill="#E2E2E2"/>
<circle cx="65.7394" cy="131.467" r="4.0418" transform="rotate(-45 65.7394 131.467)" fill="#E2E2E2"/>
<circle cx="77.1713" cy="120.035" r="4.0418" transform="rotate(-45 77.1713 120.035)" fill="#E2E2E2"/>
<circle cx="88.6034" cy="108.603" r="4.0418" transform="rotate(-45 88.6034 108.603)" fill="#E2E2E2"/>
<circle cx="100.035" cy="97.1715" r="4.0418" transform="rotate(-45 100.035 97.1715)" fill="#E2E2E2"/>
<circle cx="111.467" cy="85.7396" r="4.0418" transform="rotate(-45 111.467 85.7396)" fill="#E2E2E2"/>
<circle cx="122.899" cy="74.3076" r="4.0418" transform="rotate(-45 122.899 74.3076)" fill="#E2E2E2"/>
</svg>
