<svg width="117" height="117" viewBox="0 0 117 117" fill="none" xmlns="http://www.w3.org/2000/svg">
<ellipse cx="90.6404" cy="86.685" rx="20.25" ry="6.66667" transform="rotate(-20.8534 90.6404 86.685)" fill="#C4C4C4"/>
<path d="M97.5895 42.4231C105.825 64.0436 94.7668 88.383 72.8048 96.749C50.8428 105.115 26.3934 94.3018 18.1575 72.6812C9.92154 51.0607 20.9802 26.7213 42.9422 18.3553C64.9042 9.9893 89.3536 20.8025 97.5895 42.4231Z" fill="#00D092" stroke="url(#paint0_linear_2509_1803)" stroke-width="5"/>
<g clip-path="url(#clip0_2509_1803)">
<path d="M57.3366 34.9843C57.2634 34.9975 57.1911 35.0155 57.1202 35.038C56.7295 35.1256 56.3812 35.3459 56.1347 35.6615C55.8882 35.9771 55.7588 36.3684 55.7685 36.7688V38.6086C46.6595 39.4341 39.3954 46.6982 38.5681 55.8072H36.73C36.6758 55.8047 36.6216 55.8047 36.5674 55.8072C36.1083 55.8288 35.6767 56.0318 35.3673 56.3717C35.058 56.7115 34.8964 57.1603 34.9179 57.6193C34.9395 58.0784 35.1425 58.51 35.4824 58.8193C35.8222 59.1287 36.271 59.2903 36.73 59.2688H38.5699C39.3954 68.3778 46.6595 75.6418 55.7685 76.4691V78.3072C55.7685 78.7662 55.9509 79.2065 56.2754 79.5311C56.6 79.8556 57.0402 80.038 57.4993 80.038C57.9583 80.038 58.3985 79.8556 58.7231 79.5311C59.0477 79.2065 59.23 78.7662 59.23 78.3072V76.4674C68.3391 75.6418 75.6031 68.3778 76.4304 59.2688H78.2685C78.7275 59.2688 79.1678 59.0864 79.4923 58.7618C79.8169 58.4372 79.9993 57.997 79.9993 57.538C79.9993 57.079 79.8169 56.6387 79.4923 56.3141C79.1678 55.9896 78.7275 55.8072 78.2685 55.8072H76.4287C75.6031 46.6982 68.3408 39.4341 59.23 38.6068V36.7688C59.2388 36.5226 59.1949 36.2775 59.1013 36.0497C59.0077 35.8219 58.8666 35.6167 58.6874 35.4478C58.5082 35.2789 58.295 35.1501 58.062 35.0702C57.8291 34.9903 57.5818 34.961 57.3366 34.9843ZM55.7685 43.7991V45.4226C55.7685 45.8816 55.9509 46.3219 56.2754 46.6464C56.6 46.971 57.0402 47.1534 57.4993 47.1534C57.9583 47.1534 58.3985 46.971 58.7231 46.6464C59.0477 46.3219 59.23 45.8816 59.23 45.4226V43.7991C62.2824 44.1792 65.1207 45.5666 67.2957 47.7416C69.4707 49.9165 70.858 52.7549 71.2381 55.8072H69.6147C69.5605 55.8047 69.5062 55.8047 69.452 55.8072C68.9929 55.8288 68.5613 56.0318 68.252 56.3717C67.9426 56.7115 67.781 57.1603 67.8025 57.6193C67.8241 58.0784 68.0272 58.51 68.367 58.8193C68.7068 59.1287 69.1556 59.2903 69.6147 59.2688H71.2381C70.858 62.3211 69.4707 65.1594 67.2957 67.3344C65.1207 69.5094 62.2824 70.8968 59.23 71.2768V69.6534C59.2364 69.3904 59.1828 69.1293 59.0732 68.8902C58.9636 68.651 58.8009 68.44 58.5975 68.2731C58.3941 68.1063 58.1553 67.988 57.8994 67.9272C57.6434 67.8665 57.3769 67.8649 57.1202 67.9226C56.7295 68.0102 56.3812 68.2305 56.1347 68.5461C55.8882 68.8617 55.7588 69.253 55.7685 69.6534V71.2768C52.7162 70.8968 49.8778 69.5094 47.7028 67.3344C45.5279 65.1594 44.1405 62.3211 43.7604 59.2688H45.3839C45.8429 59.2688 46.2831 59.0864 46.6077 58.7618C46.9323 58.4372 47.1147 57.997 47.1147 57.538C47.1147 57.079 46.9323 56.6387 46.6077 56.3141C46.2831 55.9896 45.8429 55.8072 45.3839 55.8072H43.7604C44.1405 52.7549 45.5279 49.9165 47.7028 47.7416C49.8778 45.5666 52.7162 44.1792 55.7685 43.7991Z" fill="white"/>
</g>
<defs>
<linearGradient id="paint0_linear_2509_1803" x1="42.0522" y1="16.0191" x2="73.6947" y2="99.0852" gradientUnits="userSpaceOnUse">
<stop stop-color="#08AD85"/>
<stop offset="1" stop-color="#07B68C" stop-opacity="0.38"/>
</linearGradient>
<clipPath id="clip0_2509_1803">
<rect width="45" height="45" fill="white" transform="translate(35 35.0381)"/>
</clipPath>
</defs>
</svg>
