<svg width="334" height="540" viewBox="0 0 334 540" fill="none" xmlns="http://www.w3.org/2000/svg">
<ellipse cx="183.064" cy="372.638" rx="10.9989" ry="10.6934" transform="rotate(-74.9618 183.064 372.638)" fill="#00D092"/>
<ellipse cx="182.77" cy="372.559" rx="14.0541" ry="13.4431" transform="rotate(-74.9618 182.77 372.559)" fill="url(#paint0_radial_2509_2300)"/>
<ellipse cx="212.823" cy="224.926" rx="6.61887" ry="6.43501" transform="rotate(-74.9618 212.823 224.926)" fill="#00D092"/>
<ellipse cx="212.644" cy="224.878" rx="8.45745" ry="8.08973" transform="rotate(-74.9618 212.644 224.878)" fill="url(#paint1_radial_2509_2300)"/>
<ellipse cx="151.702" cy="329.504" rx="6.61887" ry="6.43501" transform="rotate(-74.9618 151.702 329.504)" fill="#00D092"/>
<ellipse cx="151.523" cy="329.457" rx="8.45745" ry="8.08973" transform="rotate(-74.9618 151.523 329.457)" fill="url(#paint2_radial_2509_2300)"/>
<path d="M43.5269 403.521C-29.6382 392.427 -79.8724 323.507 -68.662 249.576C-57.4516 175.644 10.9556 124.714 84.1207 135.808C157.286 146.902 207.52 215.822 196.31 289.754C185.099 363.685 116.692 414.615 43.5269 403.521Z" stroke="url(#paint3_linear_2509_2300)"/>
<path d="M153.99 324.584C123.819 373.845 58.9992 389.07 9.20699 358.574C-40.5852 328.078 -56.4792 263.419 -26.3084 214.157C3.86245 164.896 68.6823 149.671 118.475 180.167C168.267 210.663 184.161 275.322 153.99 324.584Z" stroke="url(#paint4_linear_2509_2300)"/>
<path d="M105.107 116.802C188.407 139.181 237.577 225.692 214.916 310.038C192.255 394.384 106.35 444.604 23.0511 422.225C-60.2482 399.845 -109.418 313.335 -86.7578 228.989C-64.0971 144.643 21.8079 94.4221 105.107 116.802Z" stroke="url(#paint5_linear_2509_2300)"/>
<defs>
<radialGradient id="paint0_radial_2509_2300" cx="0" cy="0" r="1" gradientUnits="userSpaceOnUse" gradientTransform="translate(182.77 372.559) rotate(90) scale(13.4431 14.0541)">
<stop stop-color="#00D092"/>
<stop offset="1" stop-color="#004C28" stop-opacity="0"/>
</radialGradient>
<radialGradient id="paint1_radial_2509_2300" cx="0" cy="0" r="1" gradientUnits="userSpaceOnUse" gradientTransform="translate(212.644 224.878) rotate(90) scale(8.08973 8.45745)">
<stop stop-color="#00D092"/>
<stop offset="1" stop-color="#004C28" stop-opacity="0"/>
</radialGradient>
<radialGradient id="paint2_radial_2509_2300" cx="0" cy="0" r="1" gradientUnits="userSpaceOnUse" gradientTransform="translate(151.523 329.457) rotate(90) scale(8.08973 8.45745)">
<stop stop-color="#00D092"/>
<stop offset="1" stop-color="#004C28" stop-opacity="0"/>
</radialGradient>
<linearGradient id="paint3_linear_2509_2300" x1="196.804" y1="289.829" x2="-69.1563" y2="249.501" gradientUnits="userSpaceOnUse">
<stop stop-color="#16483C"/>
<stop offset="1" stop-color="#024D29" stop-opacity="0"/>
</linearGradient>
<linearGradient id="paint4_linear_2509_2300" x1="118.736" y1="179.741" x2="8.94585" y2="359" gradientUnits="userSpaceOnUse">
<stop stop-color="#16483C"/>
<stop offset="1" stop-color="#024D29" stop-opacity="0"/>
</linearGradient>
<linearGradient id="paint5_linear_2509_2300" x1="-87.2406" y1="228.859" x2="215.399" y2="310.167" gradientUnits="userSpaceOnUse">
<stop stop-color="#16483C"/>
<stop offset="1" stop-color="#024D29" stop-opacity="0"/>
</linearGradient>
</defs>
</svg>
