<svg width="117" height="117" viewBox="0 0 117 117" fill="none" xmlns="http://www.w3.org/2000/svg">
<ellipse cx="90.6404" cy="86.685" rx="20.25" ry="6.66667" transform="rotate(-20.8534 90.6404 86.685)" fill="#C4C4C4"/>
<path d="M97.5895 42.4231C105.825 64.0436 94.7668 88.383 72.8048 96.749C50.8428 105.115 26.3934 94.3018 18.1575 72.6812C9.92154 51.0607 20.9802 26.7213 42.9422 18.3553C64.9042 9.9893 89.3536 20.8025 97.5895 42.4231Z" fill="#00D092" stroke="url(#paint0_linear_2509_1783)" stroke-width="5"/>
<g clip-path="url(#clip0_2509_1783)">
<path d="M68.0506 63.9306C70.5631 60.4409 71.6653 56.1312 71.1367 51.8637C70.6081 47.5963 68.4877 43.6857 65.1996 40.9145C61.9116 38.1433 57.6985 36.7158 53.4031 36.9175C49.1078 37.1193 45.047 38.9354 42.0332 42.0026C39.0194 45.0698 37.2748 49.1618 37.1485 53.46C37.0222 57.7583 38.5234 61.9457 41.3519 65.1846C44.1804 68.4234 48.1276 70.4749 52.4037 70.9285C56.6797 71.3821 60.9694 70.2045 64.4145 67.6311L64.4119 67.6311C64.4915 67.7355 64.5764 67.8345 64.6717 67.9308L74.8627 77.9516C75.359 78.44 76.029 78.7113 76.7253 78.7056C77.4216 78.7 78.0872 78.418 78.5756 77.9217C79.064 77.4254 79.3352 76.7553 79.3296 76.059C79.324 75.3627 79.042 74.6972 78.5456 74.2088L68.3547 64.188C68.26 64.0937 68.1584 64.0068 68.0506 63.928L68.0506 63.9306ZM68.6429 53.8348C68.6589 55.7307 68.3012 57.6111 67.5905 59.3688C66.8797 61.1265 65.8297 62.727 64.5003 64.0789C63.171 65.4308 61.5885 66.5076 59.843 67.2479C58.0975 67.9881 56.2233 68.3774 54.3275 68.3933C52.4316 68.4093 50.5511 68.0517 48.7934 67.3409C47.0357 66.6301 45.4352 65.5801 44.0834 64.2508C42.7315 62.9215 41.6547 61.3389 40.9144 59.5934C40.1741 57.848 39.7849 55.9738 39.7689 54.0779C39.7367 50.249 41.2268 46.564 43.9115 43.8338C46.5961 41.1035 50.2554 39.5516 54.0844 39.5193C57.9133 39.4871 61.5982 40.9772 64.3285 43.6619C67.0587 46.3466 68.6107 50.0059 68.6429 53.8348Z" fill="white"/>
</g>
<defs>
<linearGradient id="paint0_linear_2509_1783" x1="42.0522" y1="16.0191" x2="73.6947" y2="99.0852" gradientUnits="userSpaceOnUse">
<stop stop-color="#08AD85"/>
<stop offset="1" stop-color="#07B68C" stop-opacity="0.38"/>
</linearGradient>
<clipPath id="clip0_2509_1783">
<rect width="42" height="42" fill="white" transform="translate(37 37.0381) rotate(-0.482378)"/>
</clipPath>
</defs>
</svg>
