<svg width="117" height="117" viewBox="0 0 117 117" fill="none" xmlns="http://www.w3.org/2000/svg">
<ellipse cx="90.6404" cy="86.685" rx="20.25" ry="6.66667" transform="rotate(-20.8534 90.6404 86.685)" fill="#C4C4C4"/>
<path d="M97.5895 42.4231C105.825 64.0436 94.7668 88.383 72.8048 96.749C50.8428 105.115 26.3934 94.3018 18.1575 72.6812C9.92154 51.0607 20.9802 26.7213 42.9422 18.3553C64.9042 9.9893 89.3536 20.8025 97.5895 42.4231Z" fill="#00D092" stroke="url(#paint0_linear_2509_1809)" stroke-width="5"/>
<path fill-rule="evenodd" clip-rule="evenodd" d="M51.7501 58.0381H47.0251C46.5665 58.8324 45.8586 59.4532 45.0112 59.8043C44.1638 60.1553 43.2242 60.2168 42.3383 59.9794C41.4523 59.742 40.6694 59.2189 40.111 58.4913C39.5527 57.7636 39.25 56.872 39.25 55.9548C39.25 55.0375 39.5527 54.1459 40.111 53.4182C40.6694 52.6906 41.4523 52.1675 42.3383 51.9301C43.2242 51.6927 44.1638 51.7542 45.0112 52.1053C45.8586 52.4563 46.5665 53.0771 47.0251 53.8714H51.7501V43.4548C51.7501 42.3497 52.1891 41.2899 52.9705 40.5085C53.7519 39.7271 54.8117 39.2881 55.9168 39.2881H72.5834C73.6885 39.2881 74.7483 39.7271 75.5297 40.5085C76.3111 41.2899 76.7501 42.3497 76.7501 43.4548V72.6214C76.7501 73.7265 76.3111 74.7863 75.5297 75.5677C74.7483 76.3491 73.6885 76.7881 72.5834 76.7881H55.9168C54.8117 76.7881 53.7519 76.3491 52.9705 75.5677C52.1891 74.7863 51.7501 73.7265 51.7501 72.6214V58.0381ZM55.9168 58.0381V72.6214H72.5834V43.4548H55.9168V53.8714H60.6418C61.1004 53.0771 61.8083 52.4563 62.6557 52.1053C63.5031 51.7542 64.4426 51.6927 65.3286 51.9301C66.2146 52.1675 66.9975 52.6906 67.5558 53.4182C68.1142 54.1459 68.4169 55.0375 68.4169 55.9548C68.4169 56.872 68.1142 57.7636 67.5558 58.4913C66.9975 59.2189 66.2146 59.742 65.3286 59.9794C64.4426 60.2168 63.5031 60.1553 62.6557 59.8043C61.8083 59.4532 61.1004 58.8324 60.6418 58.0381H55.9168Z" fill="white"/>
<defs>
<linearGradient id="paint0_linear_2509_1809" x1="42.0522" y1="16.0191" x2="73.6947" y2="99.0852" gradientUnits="userSpaceOnUse">
<stop stop-color="#08AD85"/>
<stop offset="1" stop-color="#07B68C" stop-opacity="0.38"/>
</linearGradient>
</defs>
</svg>
