<svg width="231" height="434" viewBox="0 0 231 434" fill="none" xmlns="http://www.w3.org/2000/svg">
<ellipse cx="58.3363" cy="208.127" rx="10.9989" ry="10.6934" transform="rotate(67.254 58.3363 208.127)" fill="#00D092"/>
<ellipse cx="58.6223" cy="208.008" rx="14.0541" ry="13.4431" transform="rotate(67.254 58.6223 208.008)" fill="url(#paint0_radial_2509_2284)"/>
<ellipse cx="125.328" cy="343.1" rx="6.61887" ry="6.43501" transform="rotate(67.254 125.328 343.1)" fill="#00D092"/>
<ellipse cx="125.497" cy="343.028" rx="8.45745" ry="8.08973" transform="rotate(67.254 125.497 343.028)" fill="url(#paint1_radial_2509_2284)"/>
<ellipse cx="109.562" cy="222.999" rx="6.61887" ry="6.43501" transform="rotate(67.254 109.562 222.999)" fill="#00D092"/>
<ellipse cx="109.731" cy="222.928" rx="8.45745" ry="8.08973" transform="rotate(67.254 109.731 222.928)" fill="url(#paint2_radial_2509_2284)"/>
<path d="M149.703 98.2246C214.324 62.1651 296.252 85.8563 332.689 151.155C369.127 216.454 346.267 298.617 281.646 334.676C217.024 370.736 135.097 347.045 98.6592 281.746C62.2219 216.448 85.0816 134.284 149.703 98.2246Z" stroke="url(#paint3_linear_2509_2284)"/>
<path d="M110.759 228.293C104.422 170.875 146.323 119.128 204.36 112.723C262.396 106.317 314.573 147.681 320.91 205.099C327.247 262.516 285.347 314.263 227.31 320.669C169.274 327.074 117.096 285.71 110.759 228.293Z" stroke="url(#paint4_linear_2509_2284)"/>
<path d="M276.706 362.556C197.161 395.905 105.296 357.66 71.5278 277.115C37.7593 196.571 74.8824 104.247 154.428 70.8975C233.973 37.5481 325.837 75.7935 359.606 156.338C393.374 236.883 356.251 329.207 276.706 362.556Z" stroke="url(#paint5_linear_2509_2284)"/>
<defs>
<radialGradient id="paint0_radial_2509_2284" cx="0" cy="0" r="1" gradientUnits="userSpaceOnUse" gradientTransform="translate(58.6223 208.008) rotate(90) scale(13.4431 14.0541)">
<stop stop-color="#00D092"/>
<stop offset="1" stop-color="#004C28" stop-opacity="0"/>
</radialGradient>
<radialGradient id="paint1_radial_2509_2284" cx="0" cy="0" r="1" gradientUnits="userSpaceOnUse" gradientTransform="translate(125.497 343.028) rotate(90) scale(8.08973 8.45745)">
<stop stop-color="#00D092"/>
<stop offset="1" stop-color="#004C28" stop-opacity="0"/>
</radialGradient>
<radialGradient id="paint2_radial_2509_2284" cx="0" cy="0" r="1" gradientUnits="userSpaceOnUse" gradientTransform="translate(109.731 222.928) rotate(90) scale(8.08973 8.45745)">
<stop stop-color="#00D092"/>
<stop offset="1" stop-color="#004C28" stop-opacity="0"/>
</radialGradient>
<linearGradient id="paint3_linear_2509_2284" x1="98.2226" y1="281.99" x2="333.126" y2="150.911" gradientUnits="userSpaceOnUse">
<stop stop-color="#16483C"/>
<stop offset="1" stop-color="#024D29" stop-opacity="0"/>
</linearGradient>
<linearGradient id="paint4_linear_2509_2284" x1="227.365" y1="321.166" x2="204.305" y2="112.226" gradientUnits="userSpaceOnUse">
<stop stop-color="#16483C"/>
<stop offset="1" stop-color="#024D29" stop-opacity="0"/>
</linearGradient>
<linearGradient id="paint5_linear_2509_2284" x1="360.067" y1="156.145" x2="71.0667" y2="277.309" gradientUnits="userSpaceOnUse">
<stop stop-color="#16483C"/>
<stop offset="1" stop-color="#024D29" stop-opacity="0"/>
</linearGradient>
</defs>
</svg>
