<svg width="117" height="117" viewBox="0 0 117 117" fill="none" xmlns="http://www.w3.org/2000/svg">
<ellipse cx="90.6404" cy="86.685" rx="20.25" ry="6.66667" transform="rotate(-20.8534 90.6404 86.685)" fill="#C4C4C4"/>
<path d="M97.5895 42.4231C105.825 64.0436 94.7668 88.383 72.8048 96.749C50.8428 105.115 26.3934 94.3018 18.1575 72.6812C9.92154 51.0607 20.9802 26.7213 42.9422 18.3553C64.9042 9.9893 89.3536 20.8025 97.5895 42.4231Z" fill="#00D092" stroke="url(#paint0_linear_2509_1815)" stroke-width="5"/>
<path d="M63.7073 76.881L54.8739 79.2479C54.2445 79.4165 53.5917 79.0396 53.4231 78.4102C53.2545 77.781 53.6314 77.1281 54.2607 76.9595L63.0941 74.5926C63.7234 74.4241 64.3762 74.8009 64.5448 75.4302C64.7136 76.0596 64.3365 76.7123 63.7073 76.881ZM59.6173 49.7349C59.5382 50.8117 58.9291 51.4187 57.9835 51.4033C57.0419 51.3881 56.3567 50.7428 56.3793 49.7602C56.4012 48.8042 57.0007 48.1762 58.0204 48.1873C59.0395 48.1983 59.5446 48.8004 59.6173 49.7349ZM70.9419 46.1059C67.4278 40.302 60.4678 37.4821 54.0018 39.3712C48.3432 41.0246 44.6536 44.7609 43.3121 50.5072C41.9842 56.1946 43.637 61.0865 47.82 65.1832C48.801 66.1441 49.703 67.3079 50.256 68.5498C50.8105 69.7946 50.9882 70.1839 52.3387 69.8571C54.2142 69.4032 56.0647 68.8458 57.9399 68.3902C58.9012 68.1567 59.2664 67.62 59.2601 66.6509C59.2344 62.7396 59.243 58.8281 59.2572 54.9168C59.2603 54.0314 58.9821 53.3024 58.0295 53.2803C57.0652 53.2579 56.77 53.9625 56.778 54.8651C56.8003 57.401 56.7848 59.937 56.7846 62.4729C56.7845 66.5525 56.7846 66.5525 52.7733 67.1386C51.2484 65.3913 49.8597 63.8206 48.4933 62.2307C43.5893 56.5245 44.4861 48.0892 50.6067 43.7204C55.004 40.5816 59.7277 40.4069 64.4372 43.0571C68.8101 45.5181 71.1891 50.5881 70.5585 55.4926C70.1373 58.769 68.5728 61.3843 66.2523 63.6325C64.8519 64.9894 63.5758 66.4502 63.1164 68.4121C62.9015 69.3297 62.387 69.7849 61.4981 70.004C61.6642 69.8496 51.9166 72.5808 51.9166 72.5808C51.2999 72.746 50.9307 73.3857 51.0959 74.0023L51.1213 74.0976C51.2866 74.7142 51.9263 75.0836 52.543 74.9184C52.543 74.9184 63.7273 71.913 63.874 71.8715C64.9097 71.5855 65.4734 70.8482 65.4971 69.7957C65.5323 68.2246 66.215 67.0017 67.3259 65.9578C67.9207 65.3989 68.5128 64.835 69.0725 64.2416C73.6921 59.342 74.4545 51.9077 70.9419 46.1058V46.1059Z" fill="white"/>
<defs>
<linearGradient id="paint0_linear_2509_1815" x1="42.0522" y1="16.0191" x2="73.6947" y2="99.0852" gradientUnits="userSpaceOnUse">
<stop stop-color="#08AD85"/>
<stop offset="1" stop-color="#07B68C" stop-opacity="0.38"/>
</linearGradient>
</defs>
</svg>
