<svg width="30" height="30" viewBox="0 0 30 30" fill="none" xmlns="http://www.w3.org/2000/svg">
<path fill-rule="evenodd" clip-rule="evenodd" d="M15 27C18.1826 27 21.2348 25.7357 23.4853 23.4853C25.7357 21.2348 27 18.1826 27 15C27 11.8174 25.7357 8.76515 23.4853 6.51472C21.2348 4.26428 18.1826 3 15 3C11.8174 3 8.76515 4.26428 6.51472 6.51472C4.26428 8.76515 3 11.8174 3 15C3 18.1826 4.26428 21.2348 6.51472 23.4853C8.76515 25.7357 11.8174 27 15 27ZM19.95 10.83C19.5819 10.4449 19.1069 10.1787 18.5863 10.0657C18.0656 9.95273 17.523 9.99809 17.0284 10.196C16.5337 10.3938 16.1096 10.7352 15.8105 11.176C15.5114 11.6169 15.351 12.1372 15.35 12.67C15.35 12.87 15.38 13.08 15.4 13.29C14.3386 13.2301 13.3015 12.9481 12.3559 12.4624C11.4102 11.9766 10.577 11.2979 9.91 10.47C9.67996 10.8807 9.54979 11.3397 9.53 11.81C9.55 12.75 10.02 13.57 10.73 14.04C10.3088 14.0316 9.89628 13.9182 9.53 13.71V13.75C9.53 15.03 10.45 16.11 11.67 16.37C11.44 16.42 11.21 16.45 10.96 16.47L10.75 16.45L10.48 16.42C10.6497 16.9488 10.9795 17.4118 11.4238 17.745C11.868 18.0782 12.4049 18.2651 12.96 18.28C11.8253 19.1317 10.4114 19.5245 9 19.38C10.2254 20.1592 11.6479 20.5721 13.1 20.57C18 20.57 20.68 16.5 20.67 12.99V12.6C21.19 12.24 21.64 11.77 22 11.22C21.52 11.45 21 11.59 20.47 11.65C21.03 11.32 21.43 10.79 21.62 10.17C21.12 10.48 20.55 10.7 19.95 10.83Z" fill="#292929"/>
</svg>
