<svg width="25" height="26" viewBox="0 0 25 26" fill="none" xmlns="http://www.w3.org/2000/svg">
<path d="M12.5 0.5C5.5971 0.5 0 6.0971 0 13C0 19.9029 5.5971 25.5 12.5 25.5C19.4029 25.5 25 19.9029 25 13C25 6.0971 19.4029 0.5 12.5 0.5ZM18.5073 9.92243C18.5156 10.0536 18.5156 10.1903 18.5156 10.3242C18.5156 14.4202 15.3962 19.1384 9.69587 19.1384C7.93806 19.1384 6.30859 18.6278 4.93583 17.7489C5.18694 17.7768 5.4269 17.7879 5.68359 17.7879C7.13449 17.7879 8.46819 17.2969 9.53125 16.4654C8.16964 16.4375 7.02567 15.5446 6.63504 14.317C7.11216 14.3867 7.54185 14.3867 8.03292 14.2612C7.33183 14.1187 6.70166 13.738 6.24949 13.1835C5.79731 12.6291 5.55102 11.9353 5.55246 11.2199V11.1808C5.96261 11.4124 6.44531 11.5547 6.95034 11.5742C6.52579 11.2913 6.17762 10.908 5.93669 10.4582C5.69577 10.0085 5.56954 9.50628 5.5692 8.99609C5.5692 8.41853 5.71987 7.89118 5.99051 7.43359C6.7687 8.39156 7.73976 9.17506 8.84058 9.73316C9.9414 10.2913 11.1473 10.6115 12.38 10.673C11.942 8.56641 13.5156 6.86161 15.4074 6.86161C16.3002 6.86161 17.1038 7.23549 17.6702 7.83817C18.3705 7.70703 19.0402 7.44475 19.6373 7.09319C19.4057 7.81027 18.9202 8.41574 18.2757 8.79799C18.9007 8.73103 19.5033 8.55804 20.0614 8.31529C19.6401 8.93471 19.1127 9.48438 18.5073 9.92243Z" fill="white"/>
</svg>
